# xmcd
#
# Track frame offsets:
#	150
#	11243
#	27401
#	39003
#	52449
#	62563
#	73851
#	87090
#	100939
#	112610
#	124177
#	135430
#	148021
#	160096
#	170451
#	181077
#	192449
#	203403
#	214754
#	225130
#	235283
#	248159
#
# Disc length: 3484 seconds
# Revision: 0
# Processed by: cddbd v1.5.2PL0 Copyright (c) Steve Scherf et al.
# Submitted via: dBpowerAMP V12.0
#
DISCID=250d9a16
DTITLE=Tammy Wynette - The First Lady and We Sure Can Love Each Other
DYEAR=2015
DGENRE=Country
TTITLE0=Run, Woman, Run
TTITLE1=I Wish I Had A Mommy Like You
TTITLE2=True And Lasting Love
TTITLE3=I Never Once Stopped Loving You
TTITLE4=Safe In These Lovin' Arms Of Mine
TTITLE5=Sally Trash
TTITLE6=My Daddy Doll
TTITLE7=The Lovin' Kind
TTITLE8=He's Still My Man
TTITLE9=Buy Me A Daddy
TTITLE10=Playin' Around With Love
TTITLE11=We Sure Can Love Each Other
TTITLE12=The Joy Of Being A Woman
TTITLE13=He Knows All The Ways To Love
TTITLE14=Make Me Your Kind Of Woman
TTITLE15=Don't Liberate Me (Love Me)
TTITLE16=Bring Him Safely Home To Me
TTITLE17=The Only Thing
TTITLE18=Longing To Hold You Again
TTITLE19=Have A Little Faith
TTITLE20=If You Think I Love You Now
TTITLE21=Baby, Come Home
EXTD=
EXTT0=
EXTT1=
EXTT2=
EXTT3=
EXTT4=
EXTT5=
EXTT6=
EXTT7=
EXTT8=
EXTT9=
EXTT10=
EXTT11=
EXTT12=
EXTT13=
EXTT14=
EXTT15=
EXTT16=
EXTT17=
EXTT18=
EXTT19=
EXTT20=
EXTT21=
PLAYORDER=
